<?xml version="1.0" encoding="utf-8"?>
<!-- Generator: Adobe Illustrator 20.1.0, SVG Export Plug-In . SVG Version: 6.00 Build 0)  -->
<svg version="1.1" id="Layer_1" xmlns="http://www.w3.org/2000/svg" xmlns:xlink="http://www.w3.org/1999/xlink" x="0px" y="0px"
	 viewBox="0 0 263 235" style="enable-background:new 0 0 263 235;" xml:space="preserve">
<style type="text/css">
	.st0{fill:#ABE1FA;}
	.st1{fill:#FFFFFF;}
</style>
<g>
	<path d="M140,65h-2.5c0-26.5-21.6-48.1-48.1-48.1S41.3,38.4,41.3,65h-2.5c0-27.9,22.7-50.6,50.6-50.6S140,37.1,140,65z"/>
</g>
<g>
	<rect x="39.4" y="65" class="st0" width="191.6" height="156.7"/>
	<path d="M232.3,222.9H38.2V63.7h194.1V222.9z M40.7,220.4h189.1V66.2H40.7V220.4z"/>
</g>
<g>
	<path class="st1" d="M103.8,82.4L103.8,82.4c-13.2,0-23.9,10.7-23.9,23.9v0c0,13.2,10.7,23.9,23.9,23.9h0
		c13.2,0,23.9-10.7,23.9-23.9v0C127.7,93.1,117,82.4,103.8,82.4z"/>
	<path d="M103.8,131.5c-13.9,0-25.1-11.3-25.1-25.1S90,81.2,103.8,81.2c13.9,0,25.1,11.3,25.1,25.1S117.7,131.5,103.8,131.5z
		 M103.8,83.7c-12.5,0-22.6,10.2-22.6,22.6c0,12.5,10.2,22.6,22.6,22.6s22.6-10.2,22.6-22.6C126.5,93.8,116.3,83.7,103.8,83.7z"/>
</g>
<g>
	<path class="st1" d="M168.1,82.4L168.1,82.4c-13.2,0-23.9,10.7-23.9,23.9v0c0,13.2,10.7,23.9,23.9,23.9h0
		c13.2,0,23.9-10.7,23.9-23.9v0C192,93.1,181.3,82.4,168.1,82.4z"/>
	<path d="M168.1,131.5c-13.9,0-25.1-11.3-25.1-25.1s11.3-25.1,25.1-25.1c13.9,0,25.1,11.3,25.1,25.1S181.9,131.5,168.1,131.5z
		 M168.1,83.7c-12.5,0-22.6,10.2-22.6,22.6c0,12.5,10.2,22.6,22.6,22.6s22.6-10.2,22.6-22.6C190.7,93.8,180.6,83.7,168.1,83.7z"/>
</g>
<g>
	<path d="M256.1,156.4h-26.3v-26.3h26.3V156.4z M232.3,153.9h21.3v-21.3h-21.3V153.9z"/>
</g>
<g>
	<path d="M40.6,156.4H14.4v-26.3h26.3V156.4z M16.9,153.9h21.3v-21.3H16.9V153.9z"/>
</g>
<g>
	<rect x="131.9" y="40.7" transform="matrix(0.7071 -0.7071 0.7071 0.7071 18.513 128.582)" width="65.2" height="2.5"/>
</g>
<g>
	<rect x="157.2" y="40.7" transform="matrix(0.7071 -0.7071 0.7071 0.7071 25.924 146.4738)" width="65.2" height="2.5"/>
</g>
<g>
	<rect x="183.1" y="40.7" transform="matrix(0.7071 -0.7071 0.7071 0.7071 33.5066 164.7798)" width="65.2" height="2.5"/>
</g>
<g>
	<rect x="56.4" y="143.3" class="st1" width="157.5" height="62.7"/>
	<path d="M215.2,207.3h-160v-65.2h160V207.3z M57.7,204.8h155v-60.2h-155V204.8z"/>
</g>
<g>
	<rect x="134" y="143.3" width="2.5" height="62.7"/>
</g>
<g>
	<rect x="160.2" y="143.3" width="2.5" height="62.7"/>
</g>
<g>
	<rect x="107.7" y="143.3" width="2.5" height="62.7"/>
</g>
<g>
	<rect x="212.7" y="143.3" width="2.5" height="62.7"/>
</g>
<g>
	<rect x="55.2" y="143.3" width="2.5" height="62.7"/>
</g>
<g>
	<rect x="186.5" y="143.3" width="2.5" height="62.7"/>
</g>
<g>
	<rect x="81.4" y="143.3" width="2.5" height="62.7"/>
</g>
<g>
	<rect x="23" y="33" transform="matrix(0.6074 -0.7944 0.7944 0.6074 -32.5147 40.0228)" width="2.5" height="39.8"/>
</g>
<g>
	<circle cx="167.3" cy="106.3" r="7.5"/>
	<path d="M167.3,115.1c-4.9,0-8.8-3.9-8.8-8.8s3.9-8.8,8.8-8.8c4.8,0,8.8,3.9,8.8,8.8S172.2,115.1,167.3,115.1z M167.3,100
		c-3.5,0-6.3,2.8-6.3,6.3c0,3.5,2.8,6.3,6.3,6.3s6.3-2.8,6.3-6.3C173.6,102.8,170.8,100,167.3,100z"/>
</g>
<g>
	<circle cx="103.1" cy="106.3" r="7.5"/>
	<path d="M103.1,115.1c-4.9,0-8.8-3.9-8.8-8.8s3.9-8.8,8.8-8.8s8.8,3.9,8.8,8.8S108,115.1,103.1,115.1z M103.1,100
		c-3.5,0-6.3,2.8-6.3,6.3c0,3.5,2.8,6.3,6.3,6.3c3.5,0,6.3-2.8,6.3-6.3C109.4,102.8,106.6,100,103.1,100z"/>
</g>
</svg>
